<svg width="41" height="40" viewBox="0 0 41 40" fill="none" xmlns="http://www.w3.org/2000/svg">
<rect x="0.140625" width="40" height="40" rx="20" fill="#4691F2"/>
<path d="M20.1429 16.9691C18.4745 16.9691 17.113 18.3306 17.113 19.999C17.113 21.6674 18.4745 23.0289 20.1429 23.0289C21.8113 23.0289 23.1728 21.6674 23.1728 19.999C23.1728 18.3306 21.8113 16.9691 20.1429 16.9691ZM29.2304 19.999C29.2304 18.7443 29.2418 17.501 29.1713 16.2485C29.1009 14.7938 28.769 13.5027 27.7052 12.439C26.6392 11.3729 25.3504 11.0433 23.8957 10.9729C22.641 10.9024 21.3976 10.9138 20.1452 10.9138C18.8905 10.9138 17.6471 10.9024 16.3947 10.9729C14.94 11.0433 13.6489 11.3752 12.5851 12.439C11.5191 13.505 11.1895 14.7938 11.119 16.2485C11.0486 17.5032 11.0599 18.7466 11.0599 19.999C11.0599 21.2514 11.0486 22.4971 11.119 23.7495C11.1895 25.2042 11.5214 26.4953 12.5851 27.5591C13.6512 28.6251 14.94 28.9547 16.3947 29.0252C17.6494 29.0956 18.8928 29.0843 20.1452 29.0843C21.3999 29.0843 22.6432 29.0956 23.8957 29.0252C25.3504 28.9547 26.6415 28.6228 27.7052 27.5591C28.7713 26.493 29.1009 25.2042 29.1713 23.7495C29.2441 22.4971 29.2304 21.2537 29.2304 19.999ZM20.1429 24.661C17.563 24.661 15.481 22.5789 15.481 19.999C15.481 17.4191 17.563 15.3371 20.1429 15.3371C22.7228 15.3371 24.8049 17.4191 24.8049 19.999C24.8049 22.5789 22.7228 24.661 20.1429 24.661ZM24.9958 16.2349C24.3935 16.2349 23.907 15.7485 23.907 15.1461C23.907 14.5438 24.3935 14.0573 24.9958 14.0573C25.5982 14.0573 26.0846 14.5438 26.0846 15.1461C26.0848 15.2892 26.0567 15.4308 26.0021 15.563C25.9474 15.6952 25.8672 15.8153 25.7661 15.9164C25.665 16.0175 25.5449 16.0977 25.4127 16.1524C25.2805 16.207 25.1388 16.2351 24.9958 16.2349Z" fill="white"/>
</svg>
