<svg width="31" height="30" viewBox="0 0 31 30" fill="none" xmlns="http://www.w3.org/2000/svg">
<rect x="0.769165" width="30" height="30" rx="15" fill="white"/>
<g clip-path="url(#clip0_1_51)">
<path d="M15.7671 12.7275C14.5158 12.7275 13.4946 13.7487 13.4946 14.9999C13.4946 16.2512 14.5158 17.2724 15.7671 17.2724C17.0184 17.2724 18.0395 16.2512 18.0395 14.9999C18.0395 13.7487 17.0184 12.7275 15.7671 12.7275ZM22.5827 14.9999C22.5827 14.0589 22.5913 13.1264 22.5384 12.1871C22.4856 11.096 22.2367 10.1277 21.4388 9.3299C20.6393 8.53037 19.6727 8.28318 18.5817 8.23033C17.6406 8.17748 16.7081 8.18601 15.7688 8.18601C14.8278 8.18601 13.8953 8.17748 12.9559 8.23033C11.8649 8.28318 10.8966 8.53208 10.0987 9.3299C9.29922 10.1294 9.05202 11.096 8.99918 12.1871C8.94633 13.1281 8.95485 14.0606 8.95485 14.9999C8.95485 15.9393 8.94633 16.8735 8.99918 17.8128C9.05202 18.9039 9.30092 19.8722 10.0987 20.67C10.8983 21.4695 11.8649 21.7167 12.9559 21.7696C13.897 21.8224 14.8295 21.8139 15.7688 21.8139C16.7098 21.8139 17.6423 21.8224 18.5817 21.7696C19.6727 21.7167 20.641 21.4678 21.4388 20.67C22.2384 19.8705 22.4856 18.9039 22.5384 17.8128C22.593 16.8735 22.5827 15.941 22.5827 14.9999ZM15.7671 18.4964C13.8322 18.4964 12.2706 16.9349 12.2706 14.9999C12.2706 13.065 13.8322 11.5035 15.7671 11.5035C17.702 11.5035 19.2636 13.065 19.2636 14.9999C19.2636 16.9349 17.702 18.4964 15.7671 18.4964ZM19.4068 12.1769C18.955 12.1769 18.5902 11.812 18.5902 11.3603C18.5902 10.9085 18.955 10.5437 19.4068 10.5437C19.8585 10.5437 20.2233 10.9085 20.2233 11.3603C20.2235 11.4676 20.2024 11.5738 20.1615 11.6729C20.1205 11.7721 20.0603 11.8621 19.9845 11.938C19.9086 12.0138 19.8185 12.074 19.7194 12.115C19.6203 12.156 19.514 12.177 19.4068 12.1769Z" fill="#4691F2"/>
</g>
<defs>
<clipPath id="clip0_1_51">
<rect width="15.4725" height="15.4725" fill="white" transform="translate(8.03101 7.26367)"/>
</clipPath>
</defs>
</svg>
