<svg width="73" height="34" viewBox="0 0 73 34" fill="none" xmlns="http://www.w3.org/2000/svg">
<path d="M0.52 26V0.799998H5.056V26H0.52ZM18.5785 26.504C16.8025 26.504 15.2065 26.144 13.7905 25.424C12.3745 24.704 11.2585 23.66 10.4425 22.292C9.6265 20.924 9.2185 19.28 9.2185 17.36V16.784C9.2185 14.864 9.6265 13.22 10.4425 11.852C11.2585 10.484 12.3745 9.44 13.7905 8.72C15.2065 8 16.8025 7.64 18.5785 7.64C20.3545 7.64 21.9505 8 23.3665 8.72C24.7825 9.44 25.8985 10.484 26.7145 11.852C27.5305 13.22 27.9385 14.864 27.9385 16.784V17.36C27.9385 19.28 27.5305 20.924 26.7145 22.292C25.8985 23.66 24.7825 24.704 23.3665 25.424C21.9505 26.144 20.3545 26.504 18.5785 26.504ZM18.5785 22.472C19.9705 22.472 21.1225 22.028 22.0345 21.14C22.9465 20.228 23.4025 18.932 23.4025 17.252V16.892C23.4025 15.212 22.9465 13.928 22.0345 13.04C21.1465 12.128 19.9945 11.672 18.5785 11.672C17.1865 11.672 16.0345 12.128 15.1225 13.04C14.2105 13.928 13.7545 15.212 13.7545 16.892V17.252C13.7545 18.932 14.2105 20.228 15.1225 21.14C16.0345 22.028 17.1865 22.472 18.5785 22.472Z" fill="#4691F2"/>
<path d="M31.2615 17.144V16.568C31.2615 14.696 31.6335 13.1 32.3775 11.78C33.1215 10.436 34.1055 9.416 35.3295 8.72C36.5775 8 37.9335 7.64 39.3975 7.64C41.0295 7.64 42.2655 7.928 43.1055 8.504C43.9455 9.08 44.5575 9.68 44.9415 10.304H45.5895V8.144H50.0535V29.168C50.0535 30.392 49.6935 31.364 48.9735 32.084C48.2535 32.828 47.2935 33.2 46.0935 33.2H34.1415V29.24H44.5095C45.1815 29.24 45.5175 28.88 45.5175 28.16V23.516H44.8695C44.6295 23.9 44.2935 24.296 43.8615 24.704C43.4295 25.088 42.8535 25.412 42.1335 25.676C41.4135 25.94 40.5015 26.072 39.3975 26.072C37.9335 26.072 36.5775 25.724 35.3295 25.028C34.1055 24.308 33.1215 23.288 32.3775 21.968C31.6335 20.624 31.2615 19.016 31.2615 17.144ZM40.6935 22.112C42.0855 22.112 43.2495 21.668 44.1855 20.78C45.1215 19.892 45.5895 18.644 45.5895 17.036V16.676C45.5895 15.044 45.1215 13.796 44.1855 12.932C43.2735 12.044 42.1095 11.6 40.6935 11.6C39.3015 11.6 38.1375 12.044 37.2015 12.932C36.2655 13.796 35.7975 15.044 35.7975 16.676V17.036C35.7975 18.644 36.2655 19.892 37.2015 20.78C38.1375 21.668 39.3015 22.112 40.6935 22.112ZM63.5785 26.504C61.8025 26.504 60.2065 26.144 58.7905 25.424C57.3745 24.704 56.2585 23.66 55.4425 22.292C54.6265 20.924 54.2185 19.28 54.2185 17.36V16.784C54.2185 14.864 54.6265 13.22 55.4425 11.852C56.2585 10.484 57.3745 9.44 58.7905 8.72C60.2065 8 61.8025 7.64 63.5785 7.64C65.3545 7.64 66.9505 8 68.3665 8.72C69.7825 9.44 70.8985 10.484 71.7145 11.852C72.5305 13.22 72.9385 14.864 72.9385 16.784V17.36C72.9385 19.28 72.5305 20.924 71.7145 22.292C70.8985 23.66 69.7825 24.704 68.3665 25.424C66.9505 26.144 65.3545 26.504 63.5785 26.504ZM63.5785 22.472C64.9705 22.472 66.1225 22.028 67.0345 21.14C67.9465 20.228 68.4025 18.932 68.4025 17.252V16.892C68.4025 15.212 67.9465 13.928 67.0345 13.04C66.1465 12.128 64.9945 11.672 63.5785 11.672C62.1865 11.672 61.0345 12.128 60.1225 13.04C59.2105 13.928 58.7545 15.212 58.7545 16.892V17.252C58.7545 18.932 59.2105 20.228 60.1225 21.14C61.0345 22.028 62.1865 22.472 63.5785 22.472Z" fill="#1A1313"/>
</svg>
