<svg width="45" height="44" viewBox="0 0 45 44" fill="none" xmlns="http://www.w3.org/2000/svg">
<rect width="44" height="44" rx="22" transform="matrix(-1 0 0 1 44.1445 0)" fill="#4691F2"/>
<path d="M23.6493 28.0893C23.4185 27.8585 23.3077 27.5795 23.3169 27.2524C23.3261 26.9254 23.4466 26.6464 23.6782 26.4156L26.9392 23.1546H14.0685C13.7414 23.1546 13.4671 23.0438 13.2454 22.8222C13.0238 22.6005 12.9134 22.3266 12.9142 22.0003C12.9142 21.6732 13.025 21.3989 13.2466 21.1772C13.4682 20.9556 13.7422 20.8452 14.0685 20.846H26.9392L23.6493 17.5561C23.4185 17.3253 23.303 17.0509 23.303 16.7331C23.303 16.4153 23.4185 16.1413 23.6493 15.9112C23.8802 15.6804 24.1545 15.5649 24.4724 15.5649C24.7902 15.5649 25.0642 15.6804 25.2942 15.9112L30.5753 21.1923C30.6907 21.3077 30.7727 21.4327 30.8211 21.5674C30.8696 21.7021 30.8935 21.8464 30.8927 22.0003C30.8927 22.1542 30.8685 22.2985 30.82 22.4332C30.7715 22.5678 30.6899 22.6929 30.5753 22.8083L25.2654 28.1182C25.0538 28.3298 24.7894 28.4356 24.4724 28.4356C24.1553 28.4356 23.881 28.3202 23.6493 28.0893Z" fill="white"/>
</svg>
