<svg width="91" height="15" viewBox="0 0 91 15" fill="none" xmlns="http://www.w3.org/2000/svg">
<path d="M6.13773 4.19263C6.56652 2.87297 8.43348 2.87297 8.86227 4.19263C9.05402 4.7828 9.60399 5.18237 10.2245 5.18237C11.6121 5.18237 12.189 6.95796 11.0665 7.77356C10.5644 8.1383 10.3544 8.78483 10.5461 9.375C10.9749 10.6947 9.4645 11.792 8.34193 10.9764C7.8399 10.6117 7.1601 10.6117 6.65807 10.9764C5.5355 11.792 4.02509 10.6947 4.45388 9.375C4.64564 8.78483 4.43557 8.1383 3.93354 7.77356C2.81097 6.95796 3.38789 5.18237 4.77547 5.18237C5.39601 5.18237 5.94597 4.7828 6.13773 4.19263Z" fill="#4691F2"/>
<path d="M25.1377 4.19263C25.5665 2.87297 27.4335 2.87297 27.8623 4.19263C28.054 4.7828 28.604 5.18237 29.2245 5.18237C30.6121 5.18237 31.189 6.95796 30.0665 7.77356C29.5644 8.1383 29.3544 8.78483 29.5461 9.375C29.9749 10.6947 28.4645 11.792 27.3419 10.9764C26.8399 10.6117 26.1601 10.6117 25.6581 10.9764C24.5355 11.792 23.0251 10.6947 23.4539 9.375C23.6456 8.78483 23.4356 8.1383 22.9335 7.77356C21.811 6.95796 22.3879 5.18237 23.7755 5.18237C24.396 5.18237 24.946 4.7828 25.1377 4.19263Z" fill="#4691F2"/>
<path d="M44.1377 4.19263C44.5665 2.87297 46.4335 2.87297 46.8623 4.19263C47.054 4.7828 47.604 5.18237 48.2245 5.18237C49.6121 5.18237 50.189 6.95796 49.0665 7.77356C48.5644 8.1383 48.3544 8.78483 48.5461 9.375C48.9749 10.6947 47.4645 11.792 46.3419 10.9764C45.8399 10.6117 45.1601 10.6117 44.6581 10.9764C43.5355 11.792 42.0251 10.6947 42.4539 9.375C42.6456 8.78483 42.4356 8.1383 41.9335 7.77356C40.811 6.95796 41.3879 5.18237 42.7755 5.18237C43.396 5.18237 43.946 4.7828 44.1377 4.19263Z" fill="#4691F2"/>
<path d="M63.1377 4.19263C63.5665 2.87297 65.4335 2.87297 65.8623 4.19263C66.054 4.7828 66.604 5.18237 67.2245 5.18237C68.6121 5.18237 69.189 6.95796 68.0665 7.77356C67.5644 8.1383 67.3544 8.78483 67.5461 9.375C67.9749 10.6947 66.4645 11.792 65.3419 10.9764C64.8399 10.6117 64.1601 10.6117 63.6581 10.9764C62.5355 11.792 61.0251 10.6947 61.4539 9.375C61.6456 8.78483 61.4356 8.1383 60.9335 7.77356C59.811 6.95796 60.3879 5.18237 61.7755 5.18237C62.396 5.18237 62.946 4.7828 63.1377 4.19263Z" fill="#4691F2"/>
<path d="M82.1377 4.19263C82.5665 2.87297 84.4335 2.87297 84.8623 4.19263C85.054 4.7828 85.604 5.18237 86.2245 5.18237C87.6121 5.18237 88.189 6.95796 87.0665 7.77356C86.5644 8.1383 86.3544 8.78483 86.5461 9.375C86.9749 10.6947 85.4645 11.792 84.3419 10.9764C83.8399 10.6117 83.1601 10.6117 82.6581 10.9764C81.5355 11.792 80.0251 10.6947 80.4539 9.375C80.6456 8.78483 80.4356 8.1383 79.9335 7.77356C78.811 6.95796 79.3879 5.18237 80.7755 5.18237C81.396 5.18237 81.946 4.7828 82.1377 4.19263Z" fill="#D9D9D9"/>
</svg>
