<svg width="41" height="40" viewBox="0 0 41 40" fill="none" xmlns="http://www.w3.org/2000/svg">
<rect x="0.941406" width="40" height="40" rx="20" fill="#4691F2"/>
<path d="M17.5424 27.0947C18.95 27.1031 20.3454 26.8453 21.6475 26.3362C22.9497 25.827 24.1328 25.0767 25.1282 24.1288C26.1235 23.1808 26.9113 22.0541 27.4459 20.8139C27.9805 19.5737 28.2512 18.2448 28.2424 16.9042V16.436C28.972 15.9268 29.6036 15.3012 30.109 14.5868C29.422 14.873 28.695 15.0628 27.9507 15.1503C28.7398 14.7025 29.3319 13.9976 29.6174 13.1661C28.882 13.5863 28.0756 13.8817 27.234 14.0391C26.6673 13.464 25.9174 13.0828 25.1003 12.9545C24.2832 12.8262 23.4444 12.958 22.7138 13.3293C21.9832 13.7007 21.4015 14.2911 21.0587 15.009C20.7159 15.727 20.6311 16.5326 20.8174 17.3011C19.3224 17.2312 17.8596 16.8622 16.5243 16.2181C15.189 15.5741 14.0112 14.6694 13.0674 13.563C12.5915 14.3496 12.4472 15.2791 12.6638 16.1632C12.8805 17.0473 13.4417 17.82 14.234 18.3249C13.6496 18.3034 13.0786 18.1511 12.5674 17.8804V17.9201C12.5622 18.7422 12.853 19.5411 13.3913 20.1838C13.9296 20.8265 14.6829 21.274 15.5257 21.4518C14.9821 21.5911 14.4126 21.6128 13.859 21.5153C14.103 22.2164 14.5688 22.8285 15.1924 23.2675C15.8161 23.7066 16.567 23.9512 17.3424 23.9677C16.0167 24.984 14.3691 25.5434 12.6674 25.555C12.369 25.5468 12.0713 25.5229 11.7757 25.4836C13.4982 26.5287 15.5 27.0798 17.5424 27.0709" fill="white"/>
</svg>
