<svg width="31" height="30" viewBox="0 0 31 30" fill="none" xmlns="http://www.w3.org/2000/svg">
<rect x="0.655884" width="30" height="30" rx="15" fill="white"/>
<path d="M13.102 20.3208C14.1577 20.3272 15.2042 20.1338 16.1809 19.7519C17.1575 19.3701 18.0448 18.8074 18.7913 18.0964C19.5378 17.3854 20.1287 16.5404 20.5296 15.6102C20.9306 14.6801 21.1336 13.6834 21.127 12.678V12.3268C21.6742 11.9449 22.1479 11.4757 22.527 10.9399C22.0117 11.1545 21.4664 11.2969 20.9082 11.3625C21.5 11.0267 21.9441 10.498 22.1582 9.87441C21.6067 10.1896 21.0019 10.4111 20.3707 10.5292C19.9457 10.0978 19.3832 9.81195 18.7704 9.71572C18.1576 9.61948 17.5285 9.71828 16.9806 9.99683C16.4326 10.2754 15.9963 10.7181 15.7392 11.2566C15.4821 11.7951 15.4185 12.3992 15.5582 12.9756C14.437 12.9232 13.3399 12.6465 12.3385 12.1634C11.337 11.6804 10.4536 11.0018 9.74573 10.172C9.3888 10.762 9.28062 11.4591 9.44308 12.1222C9.60554 12.7853 10.0265 13.3648 10.6207 13.7435C10.1824 13.7274 9.75414 13.6132 9.37073 13.4101V13.4399C9.36683 14.0565 9.58493 14.6557 9.98867 15.1377C10.3924 15.6197 10.9574 15.9553 11.5895 16.0887C11.1818 16.1931 10.7547 16.2094 10.3395 16.1363C10.5225 16.6621 10.8718 17.1212 11.3395 17.4505C11.8072 17.7798 12.3705 17.9632 12.952 17.9756C11.9577 18.7378 10.722 19.1574 9.44573 19.1661C9.22195 19.1599 8.99869 19.142 8.77698 19.1125C10.0688 19.8964 11.5702 20.3096 13.102 20.303" fill="#4691F2"/>
</svg>
