<svg width="31" height="30" viewBox="0 0 31 30" fill="none" xmlns="http://www.w3.org/2000/svg">
<rect x="0.804688" width="30" height="30" rx="15" fill="white"/>
<path d="M15.9674 8.21321C16.889 8.21321 17.7728 8.57931 18.4245 9.23096C19.0761 9.88262 19.4422 10.7664 19.4422 11.688C19.4422 12.6096 19.0761 13.4934 18.4245 14.1451C17.7728 14.7968 16.889 15.1628 15.9674 15.1628C15.0458 15.1628 14.162 14.7968 13.5103 14.1451C12.8587 13.4934 12.4926 12.6096 12.4926 11.688C12.4926 10.7664 12.8587 9.88262 13.5103 9.23096C14.162 8.57931 15.0458 8.21321 15.9674 8.21321ZM15.9674 16.9003C19.8071 16.9003 22.917 18.4552 22.917 20.3751V22.1125H9.01776V20.3751C9.01776 18.4552 12.1277 16.9003 15.9674 16.9003Z" fill="#4691F2"/>
</svg>
