<svg width="16" height="12" viewBox="0 0 16 12" fill="none" xmlns="http://www.w3.org/2000/svg">
<path d="M9.39717 11.275C9.19717 11.075 9.10117 10.8334 9.10917 10.55C9.11717 10.2667 9.22151 10.025 9.42217 9.82505L12.2472 7.00005H1.09717C0.813838 7.00005 0.576172 6.90405 0.384172 6.71205C0.192172 6.52005 0.0965048 6.28272 0.0971714 6.00005C0.0971714 5.71672 0.193172 5.47905 0.385172 5.28705C0.577172 5.09505 0.814505 4.99938 1.09717 5.00005H12.2472L9.39717 2.15005C9.19717 1.95005 9.09717 1.71238 9.09717 1.43705C9.09717 1.16172 9.19717 0.924382 9.39717 0.725049C9.59717 0.525049 9.83484 0.425049 10.1102 0.425049C10.3855 0.425049 10.6228 0.525049 10.8222 0.725049L15.3972 5.30005C15.4972 5.40005 15.5682 5.50838 15.6102 5.62505C15.6522 5.74172 15.6728 5.86672 15.6722 6.00005C15.6722 6.13338 15.6512 6.25838 15.6092 6.37505C15.5672 6.49172 15.4965 6.60005 15.3972 6.70005L10.7972 11.3C10.6138 11.4834 10.3848 11.575 10.1102 11.575C9.8355 11.575 9.59784 11.475 9.39717 11.275Z" fill="#4691F2"/>
</svg>
