<svg width="41" height="40" viewBox="0 0 41 40" fill="none" xmlns="http://www.w3.org/2000/svg">
<rect x="0.0350876" width="40" height="40" rx="20" fill="#4691F2"/>
<path d="M20.042 26.4926H20.0234C19.966 26.4926 14.2225 26.4815 12.7734 26.088C12.3819 25.9825 12.0249 25.776 11.7383 25.4892C11.4516 25.2024 11.2454 24.8453 11.1401 24.4537C10.8795 22.9837 10.7537 21.493 10.7642 20C10.7575 18.5047 10.8867 17.0118 11.1503 15.5399C11.2585 15.1476 11.4658 14.7898 11.7521 14.5007C12.0384 14.2116 12.3943 14.0009 12.7855 13.8889C14.1947 13.5186 19.7799 13.5186 20.017 13.5186H20.0364C20.0947 13.5186 25.8531 13.5297 27.2873 13.9232C28.0827 14.1389 28.704 14.7602 28.9188 15.5556C29.1873 17.0315 29.3142 18.5287 29.2957 20.0287C29.3021 21.5223 29.1726 23.0133 28.9086 24.4834C28.802 24.8745 28.5949 25.231 28.3079 25.5174C28.0209 25.8037 27.6639 26.01 27.2725 26.1158C25.8651 26.4889 20.279 26.4926 20.042 26.4926ZM18.1901 17.2269L18.1855 22.7824L23.0114 20.0047L18.1901 17.2269Z" fill="white"/>
</svg>
