<svg width="31" height="30" viewBox="0 0 31 30" fill="none" xmlns="http://www.w3.org/2000/svg">
<rect x="0.706665" width="30" height="30" rx="15" fill="white"/>
<path d="M15.7121 19.8698H15.6982C15.6551 19.8698 11.3475 19.8614 10.2607 19.5663C9.96704 19.4872 9.69932 19.3323 9.48433 19.1172C9.26934 18.9021 9.11464 18.6343 9.03569 18.3406C8.84027 17.2381 8.74589 16.12 8.75375 15.0003C8.7487 13.8788 8.84563 12.7592 9.04333 11.6552C9.12451 11.361 9.27993 11.0926 9.49469 10.8758C9.70944 10.659 9.97633 10.501 10.2697 10.417C11.3267 10.1392 15.5156 10.1392 15.6933 10.1392H15.7079C15.7517 10.1392 20.0704 10.1476 21.1461 10.4427C21.7426 10.6045 22.2086 11.0705 22.3697 11.667C22.5711 12.7739 22.6662 13.8969 22.6524 15.0219C22.6572 16.142 22.5601 17.2603 22.3621 18.3628C22.2821 18.6562 22.1268 18.9236 21.9115 19.1383C21.6963 19.3531 21.4286 19.5078 21.135 19.5871C20.0794 19.867 15.8899 19.8698 15.7121 19.8698ZM14.3232 12.9205L14.3197 17.0871L17.9392 15.0038L14.3232 12.9205Z" fill="#4691F2"/>
</svg>
